<svg width="2154" height="502" viewBox="0 0 2154 502" fill="none" xmlns="http://www.w3.org/2000/svg">
<path d="M565.626 149.266V327H543.165V149.266H565.626ZM625.562 229.222V248.509H561.354V229.222H625.562ZM635.694 149.266V168.553H561.354V149.266H635.694ZM683.79 139.5V327H662.306V139.5H683.79ZM741.163 194.92V327H719.679V194.92H741.163ZM718.458 159.886C718.458 156.224 719.475 153.131 721.51 150.608C723.544 148.086 726.596 146.824 730.665 146.824C734.734 146.824 737.786 148.086 739.82 150.608C741.936 153.131 742.994 156.224 742.994 159.886C742.994 163.385 741.936 166.396 739.82 168.919C737.786 171.36 734.734 172.581 730.665 172.581C726.596 172.581 723.544 171.36 721.51 168.919C719.475 166.396 718.458 163.385 718.458 159.886ZM846.876 194.92H866.285V328.099C866.285 339.736 864.251 349.339 860.182 356.907C856.194 364.476 850.619 370.05 843.458 373.631C836.297 377.293 828.036 379.124 818.678 379.124C815.341 379.124 811.15 378.514 806.104 377.293C801.059 376.072 796.013 374.201 790.968 371.678C785.922 369.236 781.772 366.144 778.517 362.4L787.428 347.386C792.066 352.106 796.99 355.483 802.198 357.518C807.407 359.552 812.371 360.569 817.091 360.569C822.706 360.569 827.589 359.552 831.739 357.518C835.89 355.483 839.104 352.146 841.383 347.508C843.661 342.951 844.801 336.847 844.801 329.197V223.973L846.876 194.92ZM770.948 267.308V254.979C770.948 244.074 771.965 234.715 774 226.902C776.035 219.008 778.964 212.539 782.789 207.493C786.695 202.366 791.375 198.582 796.827 196.141C802.28 193.699 808.383 192.479 815.138 192.479C821.974 192.479 827.874 193.862 832.838 196.629C837.802 199.396 841.912 203.424 845.167 208.714C848.504 213.922 851.108 220.27 852.979 227.757C854.933 235.162 856.275 243.545 857.008 252.903V269.383C856.275 278.66 854.933 287.002 852.979 294.407C851.108 301.813 848.463 308.12 845.045 313.328C841.708 318.536 837.558 322.524 832.594 325.291C827.63 328.058 821.729 329.441 814.894 329.441C808.22 329.441 802.198 328.18 796.827 325.657C791.456 323.053 786.817 319.188 782.911 314.061C779.086 308.852 776.116 302.382 774 294.651C771.965 286.839 770.948 277.724 770.948 267.308ZM792.555 254.979V267.308C792.555 274.632 793.084 281.02 794.142 286.473C795.2 291.844 796.827 296.32 799.024 299.9C801.303 303.4 804.192 306.004 807.691 307.713C811.272 309.422 815.545 310.276 820.509 310.276C826.531 310.276 831.454 308.812 835.279 305.882C839.104 302.952 842.156 299.087 844.435 294.285C846.795 289.402 848.666 284.153 850.05 278.538V243.87C849.236 239.72 848.056 235.732 846.51 231.907C845.045 228.001 843.132 224.542 840.772 221.531C838.412 218.439 835.564 215.997 832.228 214.207C828.972 212.417 825.147 211.521 820.753 211.521C815.789 211.521 811.516 212.417 807.936 214.207C804.355 215.997 801.425 218.683 799.146 222.264C796.868 225.844 795.2 230.361 794.142 235.813C793.084 241.266 792.555 247.654 792.555 254.979ZM920.24 139.5V327H898.634V139.5H920.24ZM914.991 255.955L906.202 255.589C906.121 246.556 907.138 238.214 909.254 230.564C911.451 222.833 914.544 216.119 918.531 210.423C922.6 204.726 927.442 200.332 933.058 197.239C938.673 194.065 944.898 192.479 951.734 192.479C957.105 192.479 961.988 193.374 966.383 195.164C970.777 196.873 974.521 199.64 977.613 203.465C980.706 207.29 983.066 212.254 984.693 218.357C986.402 224.38 987.257 231.744 987.257 240.452V327H965.65V240.208C965.65 233.291 964.877 227.757 963.331 223.606C961.866 219.375 959.588 216.323 956.495 214.451C953.484 212.498 949.659 211.521 945.021 211.521C940.789 211.521 936.842 212.701 933.18 215.062C929.518 217.422 926.303 220.677 923.536 224.827C920.851 228.978 918.735 233.738 917.188 239.109C915.724 244.399 914.991 250.014 914.991 255.955ZM1067.7 194.92V212.254H1006.06V194.92H1067.7ZM1026.2 162.815H1047.8V294.285C1047.8 298.761 1048.33 302.138 1049.39 304.417C1050.53 306.696 1051.95 308.201 1053.66 308.934C1055.37 309.666 1057.2 310.032 1059.16 310.032C1060.62 310.032 1062.25 309.869 1064.04 309.544C1065.83 309.137 1067.05 308.812 1067.7 308.567L1067.58 327C1066.11 327.57 1064.16 328.099 1061.72 328.587C1059.28 329.157 1056.19 329.441 1052.44 329.441C1047.8 329.441 1043.49 328.343 1039.5 326.146C1035.52 323.948 1032.3 320.286 1029.86 315.159C1027.42 309.951 1026.2 302.952 1026.2 294.163V162.815ZM1176.22 149.266V327H1153.76V149.266H1176.22ZM1236.16 229.222V248.509H1171.95V229.222H1236.16ZM1246.29 149.266V168.553H1171.95V149.266H1246.29ZM1294.39 194.92V327H1272.9V194.92H1294.39ZM1271.68 159.886C1271.68 156.224 1272.7 153.131 1274.73 150.608C1276.77 148.086 1279.82 146.824 1283.89 146.824C1287.96 146.824 1291.01 148.086 1293.04 150.608C1295.16 153.131 1296.22 156.224 1296.22 159.886C1296.22 163.385 1295.16 166.396 1293.04 168.919C1291.01 171.36 1287.96 172.581 1283.89 172.581C1279.82 172.581 1276.77 171.36 1274.73 168.919C1272.7 166.396 1271.68 163.385 1271.68 159.886ZM1350.17 223.118V327H1328.57V194.92H1348.95L1350.17 223.118ZM1344.92 255.955L1336.13 255.589C1336.05 246.556 1337.07 238.214 1339.19 230.564C1341.38 222.833 1344.48 216.119 1348.46 210.423C1352.53 204.726 1357.37 200.332 1362.99 197.239C1368.6 194.065 1374.83 192.479 1381.67 192.479C1387.04 192.479 1391.92 193.374 1396.31 195.164C1400.71 196.873 1404.45 199.64 1407.54 203.465C1410.64 207.29 1413 212.254 1414.62 218.357C1416.33 224.38 1417.19 231.744 1417.19 240.452V327H1395.58V240.208C1395.58 233.291 1394.81 227.757 1393.26 223.606C1391.8 219.375 1389.52 216.323 1386.43 214.451C1383.42 212.498 1379.59 211.521 1374.95 211.521C1370.72 211.521 1366.77 212.701 1363.11 215.062C1359.45 217.422 1356.23 220.677 1353.47 224.827C1350.78 228.978 1348.67 233.738 1347.12 239.109C1345.66 244.399 1344.92 250.014 1344.92 255.955ZM1518.87 301.365V139.5H1540.36V327H1520.7L1518.87 301.365ZM1445.02 267.308V254.979C1445.02 244.074 1446.08 234.715 1448.19 226.902C1450.31 219.008 1453.32 212.539 1457.23 207.493C1461.13 202.366 1465.81 198.582 1471.27 196.141C1476.72 193.699 1482.74 192.479 1489.33 192.479C1496.17 192.479 1502.03 193.862 1506.91 196.629C1511.87 199.396 1516.02 203.424 1519.36 208.714C1522.7 213.922 1525.3 220.27 1527.17 227.757C1529.13 235.162 1530.43 243.545 1531.08 252.903V269.383C1530.35 278.66 1529 287.002 1527.05 294.407C1525.18 301.813 1522.58 308.12 1519.24 313.328C1515.9 318.536 1511.75 322.524 1506.79 325.291C1501.82 328.058 1495.92 329.441 1489.09 329.441C1482.58 329.441 1476.64 328.18 1471.27 325.657C1465.89 323.053 1461.22 319.188 1457.23 314.061C1453.32 308.852 1450.31 302.382 1448.19 294.651C1446.08 286.839 1445.02 277.724 1445.02 267.308ZM1466.63 254.979V267.308C1466.63 274.632 1467.16 281.02 1468.21 286.473C1469.27 291.844 1470.94 296.32 1473.22 299.9C1475.5 303.4 1478.39 306.004 1481.89 307.713C1485.47 309.422 1489.74 310.276 1494.7 310.276C1500.73 310.276 1505.65 308.812 1509.47 305.882C1513.3 302.952 1516.35 299.087 1518.63 294.285C1520.99 289.402 1522.86 284.153 1524.24 278.538V243.87C1523.43 239.72 1522.25 235.732 1520.7 231.907C1519.16 228.001 1517.2 224.542 1514.84 221.531C1512.57 218.439 1509.76 215.997 1506.42 214.207C1503.17 212.417 1499.34 211.521 1494.95 211.521C1489.98 211.521 1485.67 212.417 1482.01 214.207C1478.43 215.997 1475.5 218.683 1473.22 222.264C1471.02 225.844 1469.35 230.361 1468.21 235.813C1467.16 241.266 1466.63 247.654 1466.63 254.979ZM1620.92 329.441C1613.03 329.441 1605.91 328.261 1599.56 325.901C1593.21 323.541 1587.8 319.961 1583.33 315.159C1578.85 310.276 1575.43 304.132 1573.07 296.727C1570.71 289.321 1569.53 280.573 1569.53 270.481V255.589C1569.53 243.951 1570.88 234.104 1573.56 226.048C1576.33 217.991 1580.03 211.521 1584.67 206.639C1589.31 201.674 1594.56 198.094 1600.42 195.896C1606.28 193.618 1612.3 192.479 1618.48 192.479C1626.78 192.479 1633.86 193.821 1639.72 196.507C1645.58 199.192 1650.34 203.18 1654 208.47C1657.67 213.759 1660.35 220.27 1662.06 228.001C1663.85 235.732 1664.75 244.643 1664.75 254.734V267.308H1582.23V248.875H1643.14V245.823C1642.82 238.987 1641.88 232.965 1640.33 227.757C1638.87 222.549 1636.43 218.479 1633.01 215.55C1629.59 212.539 1624.75 211.033 1618.48 211.033C1614.49 211.033 1610.79 211.725 1607.37 213.108C1604.04 214.41 1601.15 216.73 1598.71 220.066C1596.35 223.322 1594.48 227.838 1593.09 233.616C1591.79 239.394 1591.14 246.718 1591.14 255.589V270.481C1591.14 277.562 1591.79 283.665 1593.09 288.792C1594.48 293.838 1596.47 298.029 1599.07 301.365C1601.76 304.62 1605.01 307.062 1608.84 308.689C1612.75 310.236 1617.18 311.009 1622.14 311.009C1629.39 311.009 1635.37 309.625 1640.09 306.858C1644.81 304.01 1648.92 300.389 1652.42 295.994L1663.77 309.544C1661.41 312.881 1658.32 316.095 1654.49 319.188C1650.75 322.199 1646.11 324.681 1640.58 326.634C1635.12 328.506 1628.57 329.441 1620.92 329.441ZM1712.48 215.672V327H1690.87V194.92H1711.74L1712.48 215.672ZM1745.31 194.188L1745.44 215.184C1743.65 214.777 1742.02 214.533 1740.55 214.451C1739.17 214.288 1737.54 214.207 1735.67 214.207C1731.6 214.207 1728.02 215.021 1724.93 216.648C1721.92 218.276 1719.31 220.555 1717.12 223.484C1714.92 226.414 1713.17 229.913 1711.87 233.982C1710.56 237.97 1709.67 242.365 1709.18 247.166L1703.57 250.828C1703.57 242.853 1704.18 235.366 1705.4 228.367C1706.7 221.368 1708.69 215.184 1711.38 209.812C1714.06 204.36 1717.48 200.128 1721.63 197.117C1725.86 194.025 1730.91 192.479 1736.77 192.479C1738.07 192.479 1739.66 192.682 1741.53 193.089C1743.48 193.414 1744.74 193.781 1745.31 194.188ZM1884.96 165.013L1836.38 327H1813.43L1870.68 149.266H1885.08L1884.96 165.013ZM1924.27 327L1875.68 165.013L1875.44 149.266H1889.97L1947.22 327H1924.27ZM1924.27 261.204V280.491H1838.58V261.204H1924.27ZM2028.27 257.298H1989.45V238.133H2028.27C2035.6 238.133 2041.5 236.668 2045.97 233.738C2050.53 230.809 2053.83 226.74 2055.86 221.531C2057.98 216.323 2059.03 210.382 2059.03 203.709C2059.03 197.605 2057.98 191.868 2055.86 186.497C2053.83 181.126 2050.53 176.813 2045.97 173.558C2041.5 170.221 2035.6 168.553 2028.27 168.553H1994.09V327H1971.63V149.266H2028.27C2039.75 149.266 2049.43 151.585 2057.33 156.224C2065.22 160.862 2071.2 167.291 2075.27 175.511C2079.42 183.649 2081.5 192.967 2081.5 203.465C2081.5 214.858 2079.42 224.583 2075.27 232.64C2071.2 240.696 2065.22 246.84 2057.33 251.072C2049.43 255.223 2039.75 257.298 2028.27 257.298ZM2133.74 149.266V327H2111.28V149.266H2133.74Z" fill="#D0D0D0"/>
<path d="M244.464 169.026L244.969 169.377L245.039 169.778L245.498 170.059L245.235 170.414L245.085 170.769L245.158 171.316L245.44 171.702L245.675 171.316L246.157 170.938L246.832 171.054L246.882 171.463L246.677 172.145L246.755 172.565L246.832 173.101L246.728 173.792L246.828 174.401L247.213 174.331L247.861 174.247L248.401 174.146L249.137 174.031L249.854 173.826L249.901 174.127L249.854 174.455L249.735 175.129L249.901 175.538L250.402 175.384L251.216 175.461L251.243 175.904L251.219 176.452L251.304 176.957L250.926 177.327L250.375 177.96L249.951 178.014L249.18 177.828L248.756 177.778L248.297 177.828L248.64 178.657L248.767 179.309L248.702 179.617L248.297 180.026L248.563 180.296L249.01 180.219L249.403 180.705L249.226 181.06L248.848 181.341L248.37 181.835L247.703 182.282L247.637 182.598L247.703 183.138L247.996 183.647L248.451 183.774L248.49 183.327L249.091 183.018L249.646 183.697L250.194 183.612L250.68 183.442L251.081 183.265L251.574 183.088L252.338 182.984L252.419 183.492L252.149 183.863L251.42 183.994L250.973 184.044L250.363 184.233L249.932 184.333L249.534 184.437L249.053 184.873L248.817 185.343L248.563 185.817L248.416 186.365L248.247 186.735L247.877 187.125L247.491 187.36L247.472 188.042L247.664 188.439L248.582 188.2L248.767 187.849L248.995 187.136L249.226 186.785L249.646 186.631L250.24 186.858L250.545 186.804L250.965 186.754L251.497 186.677L251.574 185.991L251.879 185.752L252.769 185.787L253.321 185.852L253.753 185.787L254.111 185.393L254.582 184.896L254.886 184.719L255.306 184.676L255.846 184.703L256.174 184.676L256.459 184.614L257.4 184.688L258.009 184.614L258.422 184.541L258.811 184.14L259.336 184.063L259.814 183.774L260.087 183.508L260.126 183.057L259.883 182.791L259.359 182.868L258.877 182.729L258.892 182.178L258.969 181.835V181.299L259.336 181.248L259.767 181.175L260.126 181.006L260.446 180.724L260.596 180.296L260.65 179.976L260.612 179.671L260.666 178.557L260.037 178.11L259.513 178.098L258.904 178.152L258.51 178.557L258.129 179.17L257.855 178.854L257.404 178.507L257.439 177.855L257.3 177.104L256.775 176.664L257.404 176.494L257.111 175.958L256.76 175.804L256.39 175.523L255.846 175.496L255.677 175.091L255.395 174.709L254.289 173.826L253.529 173.807L253.282 173.525L253.101 173.101L253.024 172.565L252.769 172.222L252.28 171.27H251.613L251.497 170.988L251.216 170.584L250.768 170.541L250.402 170.499L250.363 170.044L250.495 169.624L250.464 168.744L250.441 168.421L250.718 168.166L250.973 167.711L251.374 167.445L251.27 166.921L251.285 166.693L251.304 166.258L251.277 166.053L251.243 165.926L250.934 165.344L250.402 165.305L249.955 165.363L249.646 165.402L248.848 165.749L248.416 165.814L247.803 165.91L247.341 165.876L247.263 165.344L247.279 164.692L247.772 164.418L247.703 163.998L248.281 163.543L248.328 162.595L248.231 162.271L247.664 162.14L247.009 162.356L246.454 162.845L246.157 162.88L245.864 162.679L245.455 162.71L245.532 163.134L245.478 163.466L245.12 164.037L245.008 164.573L245.1 165.112L244.931 165.579L244.422 165.814L244.499 166.308L244.345 166.651L244.499 167.218L244.514 167.256L244.692 167.684L244.676 167.842L244.599 168.374L244.464 169.026Z" fill="#D0D0D0"/>
<path d="M245.649 175.995L245.772 175.428L245.29 174.934L245.008 174.68L244.754 174.395L244.395 174.121L243.987 174.183L243.836 174.718L243.127 175.058L243.246 174.745L243.343 174.483L243.312 174.055L242.942 173.693L242.344 174.217L241.824 174.279L241.392 174.24L241.214 174.614L241.045 174.95L240.995 175.274L241.137 175.594L241.214 175.995L240.802 176.168L240.447 176.658L240.308 177.113L239.769 177.217L239.341 177.283L238.951 177.444L239.021 177.772L239.059 178.057L239.159 178.894L238.338 179.141L238.442 179.781L238.504 180.197L238.766 180.506L239.086 180.456L239.503 180.406L239.9 180.105L240.27 179.723L240.609 179.985L240.335 180.24L240.293 180.595L240.335 180.899L240.193 181.358L240.012 181.69L239.645 182.738L239.337 183.529L238.67 184.173L239.059 184.431L239.244 184.867L239.564 185.013L239.645 185.433L239.934 185.376L240.239 185.144L240.725 184.924L241.118 185.337L241.585 185.48L242.167 185.056L242.502 184.431L242.857 183.988L243.185 183.907L243.809 183.829L243.859 183.486L243.871 182.858L244.307 182.785L244.661 182.403L244.796 181.663L245.14 181.138L244.993 180.822L244.661 180.224L244.6 179.596L244.5 179.156L244.55 178.755L244.476 178.3L244.5 177.772L244.885 177.282L245.371 176.97L245.83 176.592L245.676 176.288L245.649 175.995Z" fill="#D0D0D0"/>
<path d="M122.168 278.332L121.686 277.862L120.229 277.773L118.563 277.928L117.672 277.619L115.64 278.363L114.915 279.192L114.646 279.497L114.214 280.156L113.882 280.835L114.198 281.29L114.989 281.066L115.243 280.835L115.656 279.94L116.165 279.242L116.951 278.888L117.819 278.614L118.513 279.173L118.837 279.663L119.222 279.397L119.731 279.308L120.306 279.647L120.764 279.358L122.052 280.326L122.368 280.997L123.587 280.785L124.535 280.762L124.948 281.328L125.16 282.111L126.004 282.238L126.86 282.4L127.354 282.94L127.099 283.919L126.964 284.428L127.396 284.517L128.908 284.147L130.365 283.534L130.866 283.345L131.665 283.329L132.848 283.252L132.204 281.907L130.866 282.011L130.442 281.814L129.698 280.499L128.788 280.657L127.608 280.411L127.335 280.068L126.463 279.728L123.544 279.154L122.168 278.332Z" fill="#D0D0D0"/>
<path d="M134.23 286.16L133.162 286.125L133.305 287.02L133.987 287.347L135.02 287.197L136.004 287.07H136.019L136.617 286.966L137.168 286.877L138.911 286.927L139.188 287.32L139.558 287.093L139.821 286.545L139.69 285.751L140.106 285.921L140.866 286.098L141.444 285.898L142.238 285.373L143.017 285.142L143.823 285.019L144.532 284.803L143.726 283.792L141.868 283.638L140.603 283.025L139.304 282.709L137.623 283.056L136.428 283.565L136.258 285.142L136.937 285.547L137.072 286.252L136.513 286.422L136.158 286.507H135.869L134.893 286.472L134.23 286.16Z" fill="#D0D0D0"/>
<path d="M128.959 287.167L126.144 287.398L125.77 288.277L126.776 288.543L127.328 288.782L127.76 289.025L128.249 289.368L128.7 289.006L129.444 288.558L129.695 288.107L129.321 287.614L128.959 287.167Z" fill="#D0D0D0"/>
<path d="M250.929 64.9224C148.424 64.9224 65.0371 148.317 65.0371 250.824C65.0371 353.31 148.424 436.687 250.929 436.687C353.415 436.687 436.802 353.304 436.802 250.824C436.802 148.319 353.415 64.9224 250.929 64.9224ZM358.992 198.204L359.131 198.609L359.223 198.956L359.482 199.199L359.686 198.883L360.211 198.74L360.326 198.706L360.712 198.632L360.966 198.686V198.702L360.951 198.968L360.712 199.781L361.097 200.491L361.402 200.896L361.629 201.301L361.703 201.385L361.946 201.613L362.1 201.933L362.154 202.226L361.965 202.353L361.88 202.392L361.71 202.866L362.019 203.707L362.054 204.316L362.158 205.006L362.104 205.334V205.357L362.208 206.074L362.374 206.371L362.397 206.737L362.266 207.019L361.818 207.107L361.618 206.841L361.086 206.733L360.716 206.807L360.245 207.038L359.837 207.188L359.52 207.609L359.15 207.925L358.267 207.94L357.354 207.566L357.122 207.161L356.779 207.046L356.278 206.972L355.911 206.733L355.437 206.629L355.021 206.733L354.612 206.768L354.119 206.579L353.752 206.49L353.637 206.298L353.517 206.07L353.479 205.754L353.452 205.546L352.993 204.921L352.754 204.516L352.26 204.146L352.16 203.548L352.364 203.174L352.684 202.507L352.75 202.249L352.904 201.443L353.004 200.984L353.039 200.514L353.309 200.128L353.243 199.62L353.128 199.03L353.162 198.609L353.687 198.521L354.022 198.378L353.883 198.139L353.517 197.911L353.17 197.985L352.761 197.599L352.414 197.144L352.291 196.955L351.886 196.373L351.755 196.196L351.373 195.987L350.783 195.463L350.413 195.274L350.093 194.97L349.989 194.291L349.519 193.971L348.894 193.312L348.397 191.472L348.015 191.129L347.903 190.489L348.092 189.996L347.71 189.707L347.252 189.518L346.847 189.722L346.588 189.942L346.457 189.548V188.924L346.5 188.056L346.7 186.441L346.785 185.805L346.897 184.837L347.352 184.44L347.633 183.946L347.923 184.15L348.505 184.44L349.156 183.634L348.813 183.518L348.663 183.175L349.326 183.005L349.619 183.117L350.074 183.31L350.363 183.005L350.413 182.52L350.633 182.277L351.794 182.446L352.064 182.381L352.472 181.602L352.495 181.324L352.688 180.804L352.896 180.615L353.394 180.41L353.926 180.349L354.157 180.842L354.651 181.124L354.855 181.247H355.545L356.154 181.155L356.49 181.598L356.899 181.868L357.882 182.122L358.676 182.238L358.803 182.936L359.046 183.51L359.401 183.996L359.767 184.266L360.114 184.659L360.168 185.076L360.068 185.616L359.682 186.036L359.119 186.294L358.545 186.125L358.19 185.909L357.731 185.893L357.207 185.724L356.902 185.65L356.748 185.616H356.239L356.116 185.612L355.896 186.059L355.719 186.479L354.917 186.58C354.917 186.58 354.901 186.514 354.685 186.695L354.446 186.903L354.512 187.864L355.021 188.249L354.955 188.585L354.088 188.623L353.078 188.862L353.359 189.529L354.022 189.784L354.685 190.092L354.925 190.682L355.167 190.948L355.738 191.368L356.235 191.611L356.606 191.773H356.864L357.388 191.812L357.724 191.773L358.264 194.063L358.603 194.071L358.911 193.982L359.015 193.948L359.266 193.643L359.42 193.474L359.536 193.323L359.833 193.562L360.207 193.578L360.882 194.098C360.882 194.098 360.843 194.376 361.082 194.596C361.252 194.827 361.564 195.147 361.564 195.147L362.05 195.336L362.509 195.505L362.316 195.98L362.065 196.095L362.05 196.616L361.899 196.951L361.807 197.171L361.46 197.341L361.128 197.275L360.589 197.198L360.157 196.882L359.918 196.778L359.729 196.724L359.513 196.67L359.44 196.782L359.135 197.341L358.896 197.784L358.992 198.204ZM192.624 82.9263L192.659 82.8761C193.453 82.5985 194.255 82.3286 195.053 82.0626L194.687 82.3672L194.633 82.4057L194.047 82.8761L193.711 82.9301L192.555 83.0728L192.624 82.9263ZM250.933 428.573C167.666 428.573 97.8113 371.336 78.4848 294.077L78.8279 294.278L79.6222 295.218L81.2416 296.024L82.6296 296.691L83.5241 296.95L84.6499 297.436L86.2539 298.241L87.3335 298.295L88.4054 298.546L89.6006 299.244L91.7135 299.359L93.1054 299.745L94.4472 298.939L95.2492 298.349L98.5651 298.195L99.2013 298.18L99.4404 298.145L100.204 298.874L101.11 299.209L101.738 300.582L103.254 300.987L104.669 301.627L105.309 301.7L107.402 302.895L108.559 302.313L109.619 302.124L111.582 302.49L111.775 303.751L112.835 303.763L113.857 304.912L114.482 304.576L114.771 304.827L115.168 305.124L115.218 305.158L116.375 305.999L116.475 306.62L115.889 306.928L115.638 308.027L116.49 309.623L117.323 309.481L118.279 309.943L119.417 310.622L120.084 312.025L121.079 312.361L121.422 312.465L121.857 312.669L122.085 312.77L122.976 312.5L124.56 313.687L125.2 313.814L127.032 313.09L126.92 312.465L126.184 311.74L126.901 310.973L127.969 310.83L129.079 311.304L129.719 311.42L130.062 312.207L130.228 313.252L130.587 314.281L131.647 314.331L132.044 315.538L132.214 316.579L132.391 317.824L132.611 319.085L132.306 319.93L132.31 321.449L133.266 322.147L132.195 323.38L131.485 324.341L130.976 325.27L131.215 326.542L130.244 327.737L129.592 328.67L128.879 329.391L129.704 330.552L129.55 331.061L129.26 331.886V331.959L129.245 333.197L128.956 334.061L128.94 335.352L129.11 336.602L129.457 337.619L130.186 337.724L130.479 338.518L130.016 339.447L129.237 340.249L128.821 341.548L129.218 342.759L129.561 343.777L130.556 345.994L131.728 346.838L132.927 347.54L133.906 348.435L134.454 349.202L135.63 350.077L137.049 352.24L137.188 352.533L137.458 353.096L137.677 353.605L138.591 355.417L140.966 359.716L142.724 363.055L143.403 364.659L144.733 365.068L145.948 365.936L146.588 366.429L146.915 366.649L147.197 366.738L148.894 367.212L150.093 368.068L151.465 368.527L152.244 369.113L153.119 369.741L153.358 370.466L154.01 372.59L154.827 373.932L155.07 375.617L155.163 377.53L155.34 380.051L155.51 381.085L155.066 382.638L155.178 383.506L156.034 385.916L156.188 387.165L155.934 388.133L155.899 388.283L155.679 388.73L155.44 389.178L155.568 390.003L155.961 391.248L155.791 394.259L155.344 395.574L155.41 395.91L155.51 396.538V396.623L156.493 397.537L156.697 398.578L156.273 400.282L156.158 400.776L156.223 400.98C157.137 401.531 158.02 402.079 158.911 402.649C166.861 407.392 175.151 411.521 183.769 415.014L183.803 414.926L184.073 414.355L184.173 414.185L184.968 411.078L184.551 409.855L183.634 409.346L183.479 408.174V408.113L182.878 407.129L182.862 407.114L181.447 406.081L180.36 404.561L180.514 402.811L181.212 403.335L181.914 404.928L183.021 405.194L183.769 405.934L184.829 405.973L186.055 405.587L188.538 405.221L189.228 403.975L189.525 403.439L190.662 401.338L190.994 400.748L191.21 400.351L191.414 399.036L191.391 397.34L192.617 395.655L192.991 394.001L193.107 393.411L194.314 395.269L194.518 395.589L194.553 395.474L194.707 394.787L194.884 394.051L195.104 392.532L195.478 390.762L196.384 389.744L197.047 388.583L196.909 387.758L196.739 386.532L196.519 385.063L195.96 382.819L196.257 381.929L196.932 380.93L197.483 380.24L198.528 378.786L199.97 377.367L200.429 376.932L200.591 376.793L202.149 376.114L202.657 374.977L203.806 374.402L205.962 372.999L207.431 372.949L207.708 371.881L207.67 370.176L208.31 367.547L209.301 365.673L210.01 363.225L209.879 362.191L210.08 361.069L210.145 358.509L209.675 356.878L209.864 354.688L209.898 354.302L209.845 354.098L209.39 352.259L209.949 348.966L210.754 348.866L210.982 348.8L211.159 348.187L211.414 347.243L211.618 345.966L211.849 344.667L212.883 342.994L214.529 341.27L214.695 339.574L214.71 339.539L214.815 338.903L215.181 337.122L214.629 333.578L213.419 332.479L212.917 330.64L211.53 330.204L209.926 330.69L208.233 329.237L205.989 327.224L203.895 326.942L203.803 326.927L203.263 327.004L202.153 327.154L199.947 326.669L197.996 326.349L197.564 327.698L196.377 326.769L194.568 324.93L192.999 324.309L191.191 323.773L188.893 323.862L187.806 325.122L187.524 323.252L186.564 322.551L185.184 323.175L184.019 325.281L184.185 326.329L183.294 326.217L182.311 326.807L182.107 325.369L182.4 323.38L184.258 322.69L184.312 321.629L184.158 320.546L183.16 319.651L183.584 318.321L182.631 317.828L182.172 315.977L180.754 313.694L179.265 312.391L177.596 311.157L175.097 310.263L174.168 309.754L170.116 310.579L169.491 310.702H169.453L168.203 309.619L167.105 309.337L165.921 309.95L165.716 308.701L165.701 307.425L165.269 306.893L163.002 305.933C163.002 305.933 161.575 306.553 161.271 305.971C160.955 305.397 161.155 305.146 161.155 305.146L161.24 304.294L160.288 303.785L159.177 303.292L158.017 302.64V302.092L158.013 301.506V301.163L157.207 301.499L155.923 302.031L154.801 302.517L154.315 303.623L152.607 303.7L151.705 303.203L150.217 303.4L148.979 303.569L147.414 304.464L146.851 303.496L145.694 302.81L144.294 302.17L143.211 301.911L143.353 302.929L142.401 303.716L141.433 304.521L141.572 305.362L141.638 305.744L141.742 305.898L142.455 306.897L142.324 307.702L142.251 308.211L141.857 308.277L141.387 308.315L140.585 307.197L140.369 305.74V304.464L139.987 303.23L140.165 302.894L140.585 302.092L140.971 301.367L140.4 301.445L139.775 301.556L139.721 301.572L139.201 302.301L138.472 303.025L137.489 303.827L136.698 304.174L134.744 305.308L134.246 306.237L134.03 307.525L134.435 308.759L132.966 311.743L130.082 309.453L128.628 308.165L127.005 308.844L125.926 310.077L124.522 310.702L122.691 310.841L121.121 309.302L120.231 308.057L119.224 306.619L118.515 304.83L118.5 304.795L118.515 302.655L118.53 298.961V298.021L117.971 296.987L116.657 296.413L116.148 296.22H115.947L113.171 296.274L111.741 296.679L110.592 297.037L109.593 297.373L109.304 297.462L107.765 297.292L107.815 297.003L107.92 296.501L108.494 293.351L108.363 291.246L109.419 289.808L108.799 283.049L107.145 283.342L105.143 284.098L104.006 285.081L103.416 286.677L103.617 288.131L102.869 290.144L101.708 290.969L100.47 291.373L99.5103 291.956L98.8472 293.116L97.9064 293.521L97.2779 293.772L96.2484 293.926L95.9939 293.98L95.9284 293.826L95.6585 293.224L95.6546 293.19L93.8694 292.403L89.6205 287.078L89.2735 285.023L89.0036 283.111L88.1591 279.857L88.4522 278.095L89.1655 277.165L88.9457 275.685L88.0435 273.711L87.9934 271.979L88.7799 270.194L90.754 269.049L90.9314 267.734L91.7835 266.342L92.1151 266.215L92.7282 265.945L93.4145 265.664L95.0184 265.001L96.4373 264.769L98.3883 264.912L99.0245 266.069L99.9422 265.29L101.673 265.452L102.421 264.711L102.055 263.713V262.232L103.725 261.974L105.564 261.692L106.751 261.091L108.155 261.931L109.369 262.147L109.47 262.163L110.002 262.09L110.727 261.974L111.505 261.627L112.504 262.34L113.522 263.458L114.096 264.415L115.118 267.056L115.319 268.305L116.313 268.625L116.468 269.67L117.586 270.711L118.515 272.496L119.356 272.369L119.66 271.671L119.938 270.572L119.656 268.687L118.904 266.686L117.952 264.7L117.713 263.057L116.695 261.912L116.464 260.474L116.58 258.527L116.703 256.387L117.887 254.498L118.588 253.553L121.141 250.8L122.209 249.381L123.296 248.159L123.419 247.469L124.703 246.204L124.063 244.635L123.462 243.652L122.074 242.796L121.881 241.535L121.26 240.374L121.299 239.291L121.118 238.057L121.318 237.533L121.507 237.024L121.889 235.99H123.381L122.683 236.95L122.61 237.159L122.432 237.667L122.378 237.845L122.598 239.298L123.3 239.823L124.449 240.297L124.892 238.948L125.201 238.003L125.317 237.617L125.205 237.479L124.48 236.484L125.054 235.936L126.072 235.601L126.597 234.656L126.662 233.762L126.705 233.137L126.716 232.933L128.231 231.645L126.932 231.633L128.019 230.18L128.814 229.833L129.134 229.694L129.754 229.405L130.799 228.896L131.833 228.745L131.925 227.878L131.578 227.111V225.607L131.347 224.119L132.434 222.92L133.657 222.499L134.752 221.505L135.889 221.94L136.664 221.393L136.957 220.502L136.718 219.048L138.372 218.574L139.363 218.227L139.964 217.734L140.246 217.036L141.025 216.272L141.607 217.456L142.667 217.506L143.192 218.069L140.77 218.875L139.814 219.677L138.854 220.668L139.27 221.89L140.007 222.399L141.183 223.089L142.216 222.889L143.145 221.929L143.404 220.822L144.256 219.407L145.47 219.021L146.238 218.459L147.445 216.585L145.725 216.407L144.021 216.673L142.768 215.59L142.054 214.85L141.179 213.28L140.323 211.915L138.121 211.422L138.172 210.354L139.024 210.427L140.273 208.758L140.404 208.095L140.084 207.289L139.259 206.344L137.801 206.575L135.453 207.79L134.142 209.028L132.265 210.635L131.058 212.505L131.073 211.434L131.821 209.224L132.986 208.368L133.915 207.37L134.543 206.236L136.178 204.289L140.08 203.464L141.938 202.97L143.126 202.38L144.95 203.148L147.155 202.164L148.266 201.147L150.105 199.377L149.927 198.343L151.343 197.696L153.139 196.998L154.4 195.294L154.234 194.276L153.98 192.622L152.599 191.982L151.52 191.712L149.712 192.633L146.615 194.584L147.568 193.798L148.539 191.939L149.785 191.554L150.51 190.806L150.136 189.807L149.418 189.044L148.536 188.978L145.617 189.414L144.738 187.848L143.35 187.023L142.359 186.071L141.333 185.176L142.683 184.332L142.552 183.499L141.264 183.291L141.137 182.211L140.076 181.332L139.367 180.607L138.16 180.993L138.63 179.844L138.422 178.606L137.666 177.827L136.529 177.411L135.673 176.031L135.469 174.639L135.434 174.384L134.86 174.458H134.809L134.617 175.526L134.574 175.776L134.551 175.83L133.761 177.415L132.762 177.989L132.265 178.664L131.324 179.682L130.152 180.091L129.323 180.395L128.532 179.25L127.831 178.903L126.138 179.003L125.641 177.126L125.614 176.038L125.598 175.468V175.441L125.633 174.153L125.695 173.312L124.449 173.501L124.133 172.927L123.404 172.171L122.232 172.977L121.426 173.108L120.551 171.728L118.909 171.026L118.747 170.941L118.33 170.741L116.88 169.973L115.481 171.246L113.291 170.987L111.174 171.003L109.184 171.6L109.454 173.397L109.732 175.128L109.932 176.605L110.885 176.786L111.471 178.799L111.047 179.794L109.4 180.92L109.015 182.497L109.177 182.628L109.601 182.998L111.12 184.29L112.624 186.46L113.58 187.266L114.112 187.721L114.409 187.987L114.201 190.752L113.603 192.653L112.886 193.204L112.138 193.805L111.729 194.149L110.418 195.529L110.97 197.26L111.34 197.858L111.795 198.644L111.818 198.748L112.068 200.433L111.941 203.464L111.232 204.763L110.839 204.725L110.214 204.636L109.08 204.505L107.688 203.221L107.152 201.783L105.942 200.607L105.683 199.118L105.417 197.356L105.113 195.282L103.355 194.526L99.5029 195.108L97.4594 194.422L96.8386 194.245L95.0805 193.647L93.6654 192.386L93.1835 192.159L92.6128 191.901L91.6952 191.48L89.856 191.145L87.959 190.532L86.2856 191.384L84.9361 190.366L84.0801 189.367C89.7403 174.007 97.4942 159.652 106.94 146.623L107.55 146.966L107.577 146.253L108.101 145.906L108.702 146.076L109.655 146.777L109.998 146.303L110.518 147.066L110.688 148.038L111.733 148.335L111.351 149.65L111.698 150.02L112.223 150.61L112.743 150.394L113.383 150.02L113.877 149.384L114.656 148.948L114.779 149.804L114.922 150.787H114.945L115.839 151.204L116.441 151.385L116.556 152.356L117.042 153.571L117.551 154.211L116.61 154.466L116.753 155.306L116.946 155.815L117.293 156.208L116.811 156.706L116.317 157.353L115.677 158.283L115.037 159.108L115.087 160.103L117.59 161.811L117.274 162.578L114.983 163.334L114.089 163.781L111.976 163.796L110.31 164.737L109.863 164.992L109.801 165.161L109.038 167.085L109.227 168.18L109.917 168.373L110.58 168.828L112.203 168.288L113.175 167.151L113.707 167.085L113.807 167.07L114.417 166.97L114.771 166.8L114.841 166.781L114.505 165.543L114.941 165.763L115.346 165.713L116.171 165.423L116.518 165.948L117.362 165.983L117.86 166.441L118.789 166.862L119.105 167.112L119.464 167.444L119.965 167.907L120.258 168.176L121.384 168.026L121.843 168.385L121.179 168.905L120.952 169.075L121.133 169.53L121.149 169.603L121.58 169.653L121.758 169.669L122.868 169.653L123.273 169.464L123.412 169.403L124.661 169.214L126.419 168.828L127.73 168.913L128.979 168.712L130.117 168.828L131.447 168.493L131.381 167.764L130.514 167.926L129.689 167.043L128.54 166.954L127.024 166.202L125.625 165.396L126.157 165.188L127.395 164.853L128.173 164.448L129.153 165.304L130.895 164.729L132.519 165.204L132.214 163.989L132.534 163.222L132.353 162.231L131.844 161.618L131.154 161.602L128.378 160.469L127.583 159.586L126.982 158.684L126.523 158.348L126.789 156.447L126.677 155.491L127.853 155.017L128.617 156.05L129.207 156.509L129.881 157.118L131.027 157.246L131.165 157.924L131.856 158.055L132.357 158.549L133.005 159.17L134.47 159.235L135.422 159.104L135.472 158.53L135.368 156.987L136.309 156.579L136.459 155.815L136.382 155.137L138.46 154.832L138.41 152.704L138.013 152.044L137.238 151.47L136.12 151.609L134.701 152.569L134.265 152.495L133.729 152.569L132.746 152.731L131.636 151.073L130.919 149.901L130.244 150.275L129.897 150.749L129.438 151.377L128.224 151.871L127.545 150.976L127.175 150.541L126.704 150.047L126.539 149.847L124.576 149.449L123.99 148.941L123.828 148.011L124.399 147.896L124.985 147.117L124.553 146.188L125.64 146.026L124.75 145.451L123.601 145.505L123.049 144.719L123.697 144.179L124.46 143.809V142.814L123.419 142.39L123.381 142.964L122.382 142.98L121.499 141.846L120.443 141.684L120.061 141.634L119.714 142.12L119.46 143.238L119.398 143.585L119.336 143.442L119.097 142.64L118.808 141.661L118.26 141.063L117.609 140.581L117.077 139.853C117.077 139.853 116.082 139.98 115.712 140.03C115.288 140.084 115.457 140.234 115.457 140.234L114.069 140.427L113.699 139.918L112.55 140.674L112.465 140.084L112.481 139.679L112.492 139.336C118.203 132.249 124.41 125.606 131.119 119.475L132.16 119.306L134.096 119.672L135.291 120.524L135.549 120.779L135.838 121.11L136.158 121.068L136.652 120.991L137.481 120.644L138.167 120.964L138.483 121.766L138.765 122.356L141.086 123.312L142.401 123.64L142.594 123.678L142.705 124.407L142.756 124.727L142.536 126.042L143.635 126.076L143.989 127.075L145.138 127.792L145.304 128.841L146.465 129.504L146.619 130.526L146.06 131.035L145.79 132.153V133.202L145.651 133.869L145.755 134.478L146.804 134.528L147.594 134.193L148.574 133.618L149.156 133.653L149.68 133.691L149.858 133.653L151.566 133.36L151.843 133.969L152.699 134.062L153.794 134.096L154.458 134.416L154.153 135.322L154.296 136.14L154.847 136.919L154.724 137.559L153.69 137.751L153.012 137.424L151.855 136.926L149.908 136.814L148.258 137.088L148.169 137.131L147.34 137.439L147.24 137.462L147.325 137.478L147.922 137.67L148.805 137.89L149.299 138.415L151.041 138.58L151.55 139.128L152.441 139.421L153.343 139.753L154.168 139.621L154.754 139.301L155.394 139.247L155.849 139.78L156.038 140.797L156.397 141.838L156.355 143.103L155.576 143.215L155.738 144.479L155.699 145.524L154.859 145.451L154.006 145.59L153.282 146.33L153.15 146.993L153.829 147.325L155.533 147.07L156.339 146.928L156.713 147.718L157.002 148.536L156.004 148.883L154.924 148.844L154.045 148.574L153.035 149.114L152.121 150.132L152.302 151.177L153.108 152.094L152.568 153.051L152.788 154.273L153.474 154.616L153.764 155.191L154.596 155.067L155.772 155.73L156.181 157.161L156.115 158.017L155.784 158.695L156.324 159.49L157.218 158.506L157.349 157.855L157.959 157.508L158.772 157.408L158.279 158.533L157.531 159.085L156.944 159.582L157.554 160.581L158.448 161.074L158.591 161.88L158.938 162.489L159 162.474L159.659 162.37L159.744 162.354L160.268 163.133L160.858 163.557L160.989 163.661L161.062 164.132L161.174 164.695L162.601 163.677L162.686 163.638L162.701 163.661L163.029 164.402L163.823 165.346L163.977 166.395L164.679 166.677L164.987 167.506L165.5 168.284L166.711 167.683L167.204 166.75L167.968 166.202L168.323 167.035L169.113 167.949L170.59 167.706L171.635 167.76L172.174 168.335L172.838 168.655L173.489 170.058L173.987 169.565L174.584 169.04L174.7 168.373L174.365 167.764L173.655 167.039L174.099 166.098L174.785 164.733L174.873 163.858L175.167 163.195L175.182 161.687V160.619L175.413 160.249L175.749 159.709L175.988 159.478L176.265 159.201L176.632 158.503L176.921 157.851L176.778 156.984L176.763 155.299L176.863 154.443L177.083 153.112L177.168 152.499L177.931 151.925L178.209 150.845L180.032 150.352L181.012 149.538L182.03 149.191L182.35 150.02L183.206 150.07L183.73 149.357L184.189 149.272L184.79 149.18L184.96 149.145L185.893 148.354L186.583 147.221L186.876 146.315L187.435 145.586L188.191 145.046L189.564 142.922L190.52 142.336L190.396 141.53L190.188 140.053L190.913 140.605L191.565 140.705L192.748 140.084L193.77 139.752L194.179 139.668L195.043 139.752L196.06 139.386L196.662 139.282L197.476 138.962L198.05 138.634L198.624 138.102L199.006 137.836L199.881 137.94L200.88 137.774L201.343 136.437L202.526 135.827L203.066 135.099L203.934 135.21L204.396 134.277L205.85 133.846L206.868 133.676L206.984 133.013L207.485 132.091L208.707 130.437L207.065 130.688L205.969 130.649L204.632 129.982L203.587 130.144L202.237 131.212L201.431 131.316L201.786 129.573L201.902 128.906L201.393 128.343L201.902 127.449L201.188 126.909L200.575 126.994H199.272L198.227 127.175L197.275 126.45L197.9 126.35L198.728 126.196L199.365 126.096L199.978 126.011L200.772 125.872L201.439 126.003L202.307 126.092L202.997 126.396L203.722 126.921L204.674 127.676L205.009 128.239L205.912 128.517L206.768 128.798L207.674 129.13L208.715 129.18L209.401 129.265L209.949 128.791L209.833 127.915L209.474 126.932L208.298 126.219L207.519 125.297L205.468 124.534L204.539 123.836L203.633 123.566L202.885 123.042L202.222 122.695L201.431 123.042L200.618 123.165L199.538 123.104L199.268 122.649L198.933 122.109L198.998 122.055L199.473 121.442L200.074 121.126L200.826 120.555L201.821 119.973L202.569 120.964L203.27 121.268L203.81 121.831H203.922L204.651 121.916L204.94 122.425L205.53 123.466L206.49 123.975L207.142 124.079L207.994 124.368L208.595 124.079L208.082 123.505L207.546 122.757L208.503 122.17L207.944 121.596L207.812 121.446L206.629 120.971L205.673 120.254L204.231 119.414L205.75 119.194L206.575 119.283L207.828 119.094L208.557 118.288L209.575 117.968L210.06 116.83L209.258 115.89L207.257 116.83V115.311L208.911 114.891L208.769 114.066L208.676 113.441L208.576 112.805L207.338 111.722L208.163 111.59L208.861 111.702L209.767 112.223L210.249 111.078L210.118 110.249L208.549 108.371L207.581 108.934L206.521 109.096L207.08 108.371L207.566 107.476L207.423 106.825L207.292 106.451L207.138 106.031L209.552 105.996H210.122L210.593 106.343L211.637 106.165L212.428 105.657L212.301 105.475L211.896 104.924L211.572 104.454L211.032 103.698L210.226 104.018L208.992 104.207L208.244 103.682L209.521 102.206L207.978 102.013L205.438 101.986L205.333 101.35C205.249 100.741 206.186 101.438 206.186 101.438L207.701 101.23L207.952 100.324L208.245 99.4296L209.498 97.976L209.208 96.0866L211.807 94.8605L211.707 94.232L209.868 93.4378L208.441 93.6691L207.246 94.2783L206.86 93.2334L207.801 92.4854L209.255 92.2656L210.188 92.7245L213.107 92.3003L214.186 90.8467L214.846 90.2067L215.327 89.7478L215.489 89.6052L216.191 88.8764L217.147 88.0706L217.838 87.126L219.391 87.3149L220.579 85.6569L219.256 85.1981L216.773 85.5952L216.087 85.7071L215.644 85.7572L214.059 85.9962L210.539 86.5206L209.363 87.3611L207.921 87.5809L206.471 87.8123L205.391 87.7506L204.184 88.3521L203.105 89.5743L202.442 90.5652L201.042 91.3672L200.822 91.4058L200.109 91.5099L199.187 91.6603L198.436 90.9469L199.407 90.357L200.171 89.8327L200.753 89.5242L201.3 88.8148L201.99 87.8316L201.266 87.3303L200.013 87.3072L198.559 87.5501L198.301 88.8264L196.315 89.5281L194.938 88.8996L193.813 88.3097L193.759 88.2827L192.953 88.3097L191.653 88.3637L188.608 89.2813L186.699 89.5358L183.911 90.8275L183.954 90.3339L183.969 89.744L185.565 88.8688L186.124 88.6683L187.759 88.0938L191.314 87.5848L194.298 87.045L195.343 86.8407L199.18 86.1505L201.744 86.1891L203.182 85.9616L204.111 84.9707L204.319 83.6482L202.573 83.2935L201.933 83.3822L200.279 83.4323L199.77 83.2125L199.554 83.0968L198.991 83.0853H198.497L197.213 83.0352L196.878 82.2409L196.658 82.0211L196.288 81.6741C213.5 76.1142 231.853 73.0721 250.924 73.0721C292.503 73.0721 330.717 87.3884 360.99 111.305L361.198 112.67L361.781 114L360.836 114.316L359.995 113.873L359.571 115.303L358.731 115.052L358.237 114.343L357.933 113.556L356.552 113.992L355.758 114.085L355.723 115.118L354.281 114.732L353.425 114.474L352.442 114.598L351.729 115.299L351.551 115.889L351.413 116.614L351.363 116.768L350.009 116.957L349.203 117.088L348.606 117L347.969 116.884L348.876 116.313L349.203 115.677L348.193 115.662L347.684 114.914L347.056 114.798L345.101 116.502L344.068 117.455L343.046 117.632L342.321 118.141L341.261 118.904L340.686 119.221L339.93 119.49L339.865 119.564L339.364 119.945L338.323 120.759L338.272 121.777V122.991L337.204 123.951L336.653 124.433L335.897 124.738L335.08 124.495L334.139 123.62L333.935 122.448L334.459 121.738L335.519 120.782L335.115 119.429L334.359 118.345L332.867 117.998L330.511 118.345L330.469 119.363L330.931 119.887L330.789 121.522L330.723 122.328L330.9 123.516L330.692 124.946L330.499 126.184L330.249 127.217L328.556 126.666L328.086 126.141L327.457 126.037L326.694 126.689L326.239 127.098L326.058 127.259L325.379 128.154L324.789 129.457L324.878 130.059L325.645 131.138L326.335 131.836L325.368 131.99L324.257 131.35L323.401 130.903L322.163 130.841L321.296 130.379L320.544 130.494L320.502 131.721L320.656 132.885L321.319 133.205L322.291 134.277L322.086 135.295L320.91 135.669L319.958 135.831L318.42 135.233L317.938 134.697L317.201 133.83L316.426 132.742L316.021 131.377L315.667 130.436L314.618 130.005L313.546 129.569L312.281 129.137L311.568 128.474L310.789 127.163L309.552 125.744L311.761 127.028L312.733 126.874L313.384 127.348L314.444 127.664L316.079 127.78L318.076 127.857L319.916 127.988L320.995 128.443L322.31 127.819L323.293 126.465L324.018 125.748L324.735 125.1L325.198 124.676L325.591 124.318L324.955 122.814L324.581 121.649L323.563 121.634L322.484 120.986L322.175 120.755L321.095 119.968L320.556 119.741L319.781 119.394L318.747 118.939L315.829 118.376L315.038 118.499L313.369 118.141H312.193L310.608 118.38L309.945 118.064L308.487 117.709L308.996 116.996L308.106 116.317L307.504 116.44L306.532 116.571L305.715 116.703L304.084 117.547L303.359 116.845L303.872 116.375L304.207 115.92L305.333 115.345L303.903 113.953L303.328 114.054L302.908 113.718L302.029 113.248L301.925 113.872L302.029 114.628L301.096 115.203L300.371 114.324L301 113.175L300.718 112.642L300.051 112.326L299.558 112.828L299.504 113.845L299.234 114.856L299.149 115.48L298.586 115.769L298.092 115.233L297.992 114.67L297.583 114.501L297.483 115.334L297.04 116.19L296.947 116.317L296.693 116.664L296.67 116.934L296.616 117.474L296.145 118.171L295.81 117.204L295.698 116.618L296.057 116.093L296.184 115.924L296.334 115.465L296.465 115.083L295.956 114.559L295.609 114.447L295.1 114.285L294.676 114.196L294.514 114.173L293.886 114.239V115.272L293.539 115.731L292.772 116.059L292.687 116.849L292.178 117.358L291.414 117.674L290.805 117.767L289.483 117.138L288.781 116.999L288.449 116.911L288.858 118.26L288.569 118.723L287.929 118.569L287.065 118.349L287.435 119.301L286.815 119.401L286.086 119.706L285.396 120.601L284.798 120.485L284.335 121.403L283.607 121.877L283.105 122.783L282.674 123.446L282.623 124.672L282.219 126.099L281.363 126.839L280.669 127.556L280.156 127.622L279.897 127.664L280.252 128.605L280.561 129.372L280.522 129.704L280.484 130.008L279.948 130.683L279.335 131.782L278.748 131.855L278.209 132.368L277.958 133.386L276.909 134.631L276.794 134.793L276.539 135.854L275.814 136.551L275.61 137.592L274.862 138.105L274.341 138.398L273.682 138.483L272.895 139.806L272.629 140.662L271.932 141.174L271.847 141.965L272.653 142.258L273.254 142.173L272.784 143.014L272.78 143.048L271.889 143.607L271.083 143.708L270.894 143.199L270.779 142.944L270.189 142.844L269.587 142.944L268.824 143.26L268.708 143.403L268.323 143.927L268.446 144.051L268.851 144.448L269.271 144.768L267.733 145.446L267.837 146.214L267.262 146.326L266.495 146.449L266.148 147.085L266.237 147.667L265.921 147.729L265.319 148.203L265.068 149.044L264.263 149.198L263.815 149.823L262.886 150.386L262.57 151.026L262.088 151.928L262.674 153.061L262.828 154.234L263.449 155.533L263.958 156.026L265.462 155.622L265.3 157.268L264.212 157.819L264.128 158.625L264.232 159.427L265.038 159.311L265.423 160.461L265.585 161.636L266.657 162.08L267.698 162.3L270.058 161.968L270.96 161.201L271.75 159.874L273.081 159.273L273.694 158.382L274.654 158.035L275.429 158.733L275.726 159.685L276.277 160.626L276.331 160.931L276.42 161.544L276.462 161.798L277.329 163.275L278.81 164.069L279.469 164.366L279.747 164.898L279.084 165.82L278.575 166.294L277.63 166.63L277.761 167.628L276.782 167.759L276.142 167.671L276.342 168.858L277.06 169.737H278.305L278.575 169.109L278.455 168.284L278.748 167.443L279.512 167.111L279.597 167.686L280.09 168.249L281.428 167.844L281.949 167.335L282.003 166.329L282.473 165.473L283.159 164.948L285.126 164.455L285.735 163.163L285.565 162.172L285.372 160.796L285.6 159.57L285.604 159.234L285.615 158.61L285.619 158.344L285.469 157.549L285.596 156.94L286.363 156.809L286.965 156.724L287.879 156.2L288.453 155.884L288.758 155.259L288.453 154.708L289.051 153.405L288.083 152.348L287.404 151.65L286.564 151.565L285.939 151.234L285.299 150.964L284.443 146.869L284.779 146.191L284.651 145.412L285.145 144.953L285.881 144.217L286.101 142.979L286.24 142.855L286.606 142.52L286.61 141.884V141.313L287.335 140.577L289.209 139.917L290.126 139.181L290.358 138.101L291.275 137.373L290.713 136.451L289.984 135.557L290.632 134.643L291.141 133.964L291.781 133.074L292.116 132.445L292.424 131.778L293.766 131.539L294.275 132.098L296.427 131.778L297.537 132.399L297.691 133.359V134.585L296.596 135.564L295.783 136.713L295.328 137.754L294.68 138.649L294.283 140.126L293.25 141.29L293.153 141.51L292.899 142.135L292.798 142.401L293.076 144.132L293.253 145.308L293.863 146.657L293.369 147.525L294.079 148.215L294.387 148.944L294.796 148.882L295.559 148.577L296.161 148.693L296.076 149.333L295.59 150.189L297.02 150.174L297.298 150.744L298.767 151.303L299.446 150.625L299.916 149.541L300.417 149.059L301.516 148.273L302.303 147.984L303.479 147.795L304.439 147.448L305.202 147.324L306.209 148.577L307.049 148.87L307.839 148.755L308.422 148.45L309.073 148.755L308.618 149.788L308.094 150.517L306.957 150.717L306.066 150.413L306.043 151.627L304.527 152.063L303.483 151.832L302.484 151.974L301.678 151.685L300.799 152.811L299.839 152.981L299.06 153.092L298.578 153.779L298.019 154.264L298.15 155.186L298.189 155.417L298.459 155.71L298.698 155.942L299.334 156.25L299.369 159.092L298.667 159.782L298.173 160.457L297.321 160.187L297.032 159.612L296.585 159.285L295.837 158.39L294.688 158.776L295.093 160.102L295.12 161.513L294.854 162.574L294.399 163.464L294.079 164.077L294.171 164.667L294.194 164.868L294.267 164.983L294.73 165.569L294.854 166.375L294.753 166.491L293.974 167.324L293.685 166.738L293.095 166.637L292.818 167.678L292.733 168.507L292.529 169.734L291.649 169.271L291.125 169.552L290.67 170.601L290.123 169.707L289.668 169.36L288.461 169.552L287.979 170.231L286.14 171.314L284.659 171.916L283.869 172.263L283.074 172.541L281.771 172.606L281.042 172.109L279.627 171.723L279.203 171.785L278.455 173.508L277.495 173.651L276.971 173.138L276.346 172.602L275.571 172.745L274.777 172.047L274.488 170.91L275.409 170.358L275.432 169.556L274.923 168.816L274.769 167.833L275.139 166.368L275.278 165.755L274.198 165.103L273.774 163.985L274.434 162.867L274.306 161.972L274.283 161.868L273.963 161.436L273.759 161.128L273.454 161.548L272.93 162.261L272.915 162.288L272.417 163.156L271.804 164.262L270.512 164.86L271.569 165.08L269.973 166.765L270.543 167.667L271.245 168.376L271.337 169.167L271.685 170.1L272.244 170.813L272.513 171.592L273.022 173.312L273.369 174.28L272.379 175.864L272.02 175.88L271.179 175.814L270.258 176.15L268.881 176.574L268.299 176.639L267.281 176.793L267.227 177.43L266.665 177.923L266.078 179.238L266.04 180.398V181.659L265.955 182.241L264.463 182.481L263.861 182.558L263.796 182.573L262.658 183.148L261.895 183.483L260.989 184.208L260.954 185.214L260.696 186.043L260.16 186.733L259.023 187.13L258.753 187.956L258.012 188.287L257.052 188.846L256.528 187.902L255.34 187.886L255.101 188.943L255.394 189.706L255.78 190.851L255.071 191.36L254.226 191.268L253.463 191.379L252.668 191.518L251.427 192.309L250.856 192.764L250.548 193.442L250.702 194.41L251.527 194.503L252.992 194.634L254.276 195.586L255.984 196.442L257.681 197.344L258.321 198.543L258.626 200.328L258.676 201.08L258.71 201.732L258.784 203.004L259.077 204.978L258.313 205.773L256.667 205.352L255.113 205.592L253.721 205.16L252.379 205.314L251.065 205.545L249.179 206.501L247.787 206.262L246.627 205.973L246.272 206.498L245.697 207.238L244.421 207.693L243.835 208.449L243.997 209.328L244.826 210.346L245.412 211.379L245.67 213.129L245.902 214.672L245.408 215.878L245.219 217.459L245.408 218.797L245.813 219.885L246.361 220.432L246.657 222.445L246.819 223.563L248.423 223.763L250.131 223.039L250.791 222.95L251.597 223.948L252.668 224.685L253.767 224.758L255.005 223.883L255.734 223.096L257.083 222.88L258.209 222.742L258.768 221.951L259.057 221.022L260.233 219.939L261.101 219.592L261.417 218.624L261.517 217.702L262.47 216.661L262.585 215.948L262.003 215.142L262.107 214.228L262.805 213.002L263.364 212.004L263.7 211.51L264.494 210.477L265.708 209.613L266.935 208.784L267.282 208.263L267.509 206.852L267.37 205.969L266.607 205.183L266.954 204.442L268.118 203.853L268.218 203.799H269.765L271.384 204.242L272.56 204.508L273.169 203.729L273.64 202.769L274.7 202.384L275.49 201.366L275.972 200.155L277.549 199.897L278.621 201.316L279.4 202.083L280.518 203.317L280.911 204.362L281.968 205.572L283.175 206.066L284.412 206.768L285.646 207.238L287.077 207.712L288.576 208.834L289.876 209.79L290.847 210.311L291.256 211.356L291.476 212.913L291.383 213.82L290.797 214.598L290.211 214.934L289.321 215.038L288.407 215.408L287.327 216.017L286.691 215.902L287.312 216.935L288.742 217.382L289.949 217.907L290.674 218.254L290.712 217.097L290.99 215.921L292.062 215.528L292.609 214.787L293.199 214.008L293.697 213.002L293.724 211.672L293.631 211.02L293.072 210.43L292.883 209.312L294.36 208.433L295.37 209.15L294.209 207.542L293.411 206.733L292.417 206.224L291.665 205.649L290.624 204.67L289.945 204.543L287.366 204.068L286.502 202.831L286.166 201.975L285.176 201.462L283.676 200.548L282.889 199.773L282.955 199.021L283.005 198.397L283.016 197.977L282.419 196.469L284.258 195.528L284.856 198.22L284.89 198.324L285.072 198.208L285.712 197.765L286.652 196.5L287.956 197.66L287.994 197.965L288.094 198.555L288.11 198.775L288.476 199.816L289.984 200.279L291.402 200.946L293.176 202.276L295.702 202.565L296.797 203.957L297.306 207.273L297.676 208.129L298.775 209.528L300.56 210.612L301.647 211.985L302.607 212.544L303.957 212.559L302.785 213.631L303.193 214.699L304.311 214.753L305.8 214.078L306.972 212.991V212.948L307.103 212.324L307.435 212.185L307.959 211.954L307.604 211.113L307.188 211.009L306.525 210.839H306.447L305.291 210.785L304.705 209.968L304.369 209.143L304.469 208.229L304.076 207.161L303.868 206.078L304.886 206.779L305.638 206.691L306.235 206.602V206.598L306.582 205.862L306.216 205.029L307.303 204.867L309.339 204.763L309.914 205.808L310.627 207.284L311.225 208.306L311.772 208.896L311.899 209.779L311.398 210.751L311.768 211.834L312.902 211.907L313.218 213.855L314.274 213.716L315.107 214.483L316.511 214.965L318.281 216.049L319.11 215.678L319.618 214.699L320.012 213.959L321.296 213.77L322.761 214.437L323.968 214.934L325.317 214.714L326.312 213.889L327.446 212.617L328.652 211.761L329.192 213.689L329.246 214.063L329.358 214.645L329.508 215.678L329.852 217.88L330.079 219.426L329.693 221.3L329.69 222.649L329.574 223.571L329.073 224.766L325.761 225.071L324.928 225.618L323.987 225.298L322.676 225.526L321.25 226.409L320.59 226.74L319.491 226.933L318.385 226.883L317.402 226.536L317.213 228.159L316.368 228.495L315.717 228.599L315.019 228.495L313.804 227.797L312.655 227.72L311.56 227.897L310.797 227.307L310.361 227.126L310.033 226.975H308.699L307.808 227.126L306.925 227.238L306.12 226.451L305.595 225.865L304.5 226.046L303.606 226.177L302.275 227.527L301.689 228.279L301.89 229.609L302.052 230.696L301.477 231.448L300.918 232.223L299.569 232.188L298.855 232.073L297.934 231.764L296.746 231.271L295.277 230.812L293.635 230.145L292.37 229.243L290.562 229.293L288.927 228.857L287.323 228.68L286.483 227.874L285.372 227.812L284.605 227.242L284.135 226.258L283.876 225.684L283.626 225.144L284.196 224.404L283.876 222.391L282.881 221.662L283.236 220.058L284.115 218.316L282.827 218.535L281.898 218.624L280.826 218.805L279.361 219.484L277.969 219.468L277.036 219.164L276.728 219.881L275.633 220.058L274.673 219.966L273.065 219.546L271.765 219.966L271.665 220.058L271.106 220.583L270.37 221.319L268.415 221.589L267.065 221.373L266.144 221.72L265.65 222.703L264.652 223.509L263.163 224.207L262.816 224.932L261.309 225.379L260.21 225.784L259.443 226.359L257.442 226.679L256.601 227.026L255.707 227.164L254.519 226.671L253.574 226.351L252.476 226.517L252.715 228.036L252.476 229.416L251.712 230.681L250.995 231.699L250.991 231.737L250.235 232.493H250.22L249.036 233.326L247.903 235.088L247.86 237.59L248.103 239.341L248.269 240.463L248.473 241.789L247.86 243.667L246.164 245.98L245.447 247.025L244.456 248.058L243.92 249.026L242.863 249.431L242.061 251.814L240.685 254.478L240.477 255.87L239.598 257.574L239.266 259.922L237.824 262.166L238.094 263.89L238.742 265.39L238.842 265.64L239.062 266.25L239.224 266.681L239.285 268.929L239.555 270.433L240.361 271.489L240.65 273.444L240.496 275.021L240.303 276.895L239.706 279.027L239.308 280.878L240.149 281.884L240.619 283.577L241.244 284.637L242.058 285.393L242.863 286.434L243.758 287.629L244.953 288.123L245.478 288.713L246.804 289.9L247.864 291.095L248.504 292.564L249.117 293.359L250.035 294.812L250.343 295.159L250.544 295.41L250.91 295.73L251.843 296.563L254.137 298.267L255.845 299.108L257.588 300.191L258.753 300.449L259.952 300.739L260.827 300.615L264.397 298.961L265.681 298.263L267.012 298.094L268.724 297.797L269.846 297.643L271.8 297.134L273.3 296.659L274.522 296.023L275.872 295.853L277.221 294.269L278.239 293.463L281.401 292.534L281.474 292.507L282.072 292.688L282.427 292.792L284.108 293.667L284.493 294.735L284.79 296.486L286.248 297.187L288.411 296.648L289.617 295.996L290.751 295.826L292.791 297.303L293.415 298.363L293.342 301.101L293.327 301.976L293.022 303.353L293.57 306.692L292.741 308.847L294.869 310.987L297.282 313.354L299.804 316.581L300.263 318.278L301.358 319.489L302.723 321.066L303.147 323.745L303.513 324.744L303.733 325.334L303.988 326.063L304.323 328.291L304.716 329.567L304.955 331.071L305.225 333.35L304.257 335.297L304.157 336.396L304.122 338.898L303.918 340.757L303.856 340.949L303.648 341.628L303.34 342.638L303.44 344.871L304.431 346.768L305.352 348.399L306.667 349.775L308.094 353.195L309.698 354.749L311.637 358.5L311.926 360.478L312.196 362.248L313.091 364.581L313.345 365.256L313.496 365.788L313.804 366.998L314.976 368.591L316.303 369.979L317.587 371.128L318.4 373.272L319.41 375.284L319.649 375.755L319.715 375.909L320.108 377.07L320.671 378.103L320.632 380.59L320.902 382.36L321.477 383.173L322.919 383.62L324.908 383.532L325.039 383.505L325.865 383.266L326.64 383.05L330.183 382.525L331.155 381.457L333.568 381.083L334.451 380.956L336.718 379.707L337.894 378.647L337.898 378.643L338.214 378.103L338.453 377.667L339.201 376.669L339.726 375.635L340.505 374.86L341.044 373.893L341.792 372.848L342.324 371.864L342.525 370.257L343.273 369.235L343.782 368.024L344.561 367.234L345.101 366.266L344.248 365.248L346.226 364.724L345.818 362.063L345.309 360.344L344.468 359.337L345.309 358.763L346.242 357.718L347.518 357.07L348.567 356.704L349.13 355.917L348.999 355.004L348.575 349.266L347.911 347.978L347.607 347.365L346.828 346.571L346.442 345.499L346.481 344.393L347.287 343.81L347.591 342.646L348.174 340.745L348.925 339.747L351.193 338.486L353.305 337.221L353.984 335.783L354.952 333.369L355.287 331.071L354.998 329.336L354.794 327.925L354.694 327.355L354.57 326.441L354.3 325.269L354.169 324.71L353.915 323.611L353.579 321.409L352.716 320.156L351.667 319.223L351.385 315.895L351.821 314.214L350.826 313.49L349.708 312.51L349.527 310.953L350.433 308.149L350.067 305.701L350.526 304.298L351.235 303.033L352.8 301.441L353.398 299.582L354.848 297.057L355.407 294.955L356.375 293.907L357.994 292.557L359.725 290.699L361.495 287.495L362.953 285.235L363.701 282.852V281.295L364.271 278.927L365.116 275.661L366.06 273.024L366.23 271.204L366.635 269.342L366.392 267.699L366.342 267.352L366.315 267.152L366.033 265.598L364.595 266.473L363.346 267.102L362.081 267.572L361.422 267.892L360.238 268.96L359.845 269.485L359.305 270.225L357.393 270.34L356.841 270.379L355.746 270.541L354.574 270.252L352.5 268.548L350.915 266.994L350.753 265.91L349.149 264.595L348.436 263.794L347.426 263.038L346.396 262.282L345.61 261.199L344.399 260.813L344.345 260.798L343.755 260.478L343.046 260.104L342.471 258.411L341.985 257.085L341.935 256.946L341.681 256.491L341.156 255.562L340.069 254.54L338.989 253.175L337.894 252.157L337.32 250.14V248.317L336.927 247.465L335.762 245.849L334.039 244.604L332.658 241.484L331.895 240.439L330.861 237.582L330.086 236.445L328.66 235.169L328.459 233.681L327.38 232.674L327.226 231.448L327.021 230.311L328.128 231.625L329.443 232.339L331.39 233.233L332.55 234.887L333.364 236.264L335.457 238.049L336.923 239.653L339.205 241.091L339.386 242.263L339.626 243.732L339.834 245.224L340.613 246.304L341.125 247.449L342.409 249.936L342.756 250.141L343.443 250.515L345 251.367L346.45 252.936L347.584 254.266L348.501 256.526L348.528 256.599L348.721 257.173L349.068 258.261L349.693 260.551L350.194 261.696L352.288 263.497L353.271 263.929L354.825 264.314L356.779 263.103L357.605 262.988L359.401 262.706L362.154 261.071L363.839 260.219L364.819 258.87L366.025 258.045L366.5 257.725V257.555L366.511 255.913L368.74 254.648L369.457 253.649L369.792 253.194L370.228 252.62L370.367 252.477L371.512 251.205L373.795 250.26L374.473 248.976L375.059 246.786L375.788 245.768L376.964 243.478L376.744 241.997L377.916 239.992L377.091 238.3L374.755 236.873L373.478 236.468L372.14 235.744L371.339 234.363L370.328 233.627L370.078 232.158L368.455 234.406L368.354 234.548L368 235.62L367.926 235.813L365.393 236.804L364.244 237.286L363.03 237.155L362.162 235.489L361.622 234.035L360.708 233.908L360.068 235.489L358.958 234.174L358.164 232.775L356.864 230.241L355.719 228.645L354.582 227.284L353.818 226.201L353.907 224.701L355.912 224.099L357.975 223.772L359.367 225.082L359.829 226.204L360.253 227.022L361.387 228.371L362.096 229.162L363.446 230.157L364.464 230.615L365.983 230.982L367.294 230.762L367.918 230.662L368.057 230.646L369.476 230.153L370.66 229.964L371.882 230.068L372.989 231.398L373.74 232.192L374.916 232.023L378.028 232.751L379.636 233.415L382.797 232.628L387.459 231.313L388.963 231.699L389.603 231.888L390.254 232.057L390.289 232.073L390.732 232.952L393.227 233.758L394.947 234.992L396.258 235.705L397.734 235.485L396.022 238.161L395.259 239.183L397.322 240.648L399.423 240.937L400.638 240.76L401.432 240.043L401.112 237.976L401.305 237.054L402.261 237.54L402.847 239.221L403.128 241.261L403.14 243.393L403.876 246.007L405.064 248.864L405.268 249.335L405.295 249.408L406.683 252.789L408.303 255.253L408.646 257.601L408.731 257.898L409.255 259.633L409.332 259.706L411.407 261.735L413.381 264.73L413.99 267.059L415.702 268.309L417.032 267.19L417.699 265.61L418.806 264.858L419.203 265.66L419.573 268.016L420.502 269.97L421.104 272.006L422.657 272.365L423.691 271.304L423.421 269.558L422.897 268.093L421.497 266.82L420.733 265.748L420.309 264.908L419.199 263.566L418.979 262.078L418.759 260.624L418.439 258.569L418.759 256.695L418.354 254.035L418.065 252.3L418.158 250.784L420.163 248.352L421.427 246.659L422.831 246.119L424.539 243.455L425.306 242.422L426.046 241.404L427.211 239.144L427.77 238.709L428.206 238.377C428.495 242.499 428.688 246.647 428.688 250.846C428.684 348.997 349.106 428.566 250.929 428.566L250.933 428.573ZM315.662 203.801L315.254 204.449L314.729 204.376L314.155 204.187L313.769 204.43L312.825 205.097L312.223 205.162L312.62 204.445L313.985 203.693L314.205 203.462L314.525 203.184L314.745 202.428L314.22 202.34L313.584 202.251L313.025 201.916L312.566 201.237L311.945 200.231L312.416 199.093L312.771 197.917L312.933 197.543L313.596 196.969L313.661 196.907L313.546 196.348L313.276 195.022L313.623 194.44L313.738 194.081L314.486 193.792L314.247 192.674L313.762 192.007L314.205 191.378L314.66 190.869L315.539 189.89L315.909 189.369L316.214 188.371L317.397 188.205L317.663 188.116L317.991 188.355L318.08 188.575L318.473 188.972L319.838 189.211L320.871 189.061L321.762 188.625L321.885 189.416L321.511 189.732L320.513 190.167L320.247 190.727L320.004 191.301L320.594 191.367H321.828L322.098 191.876L322.109 192.573L321.92 193.017L322.302 193.306H323.019L323.875 192.708L324.955 192.176L325.579 191.86L325.926 191.698L326.331 191.459L326.99 191.367L327.264 190.711L328.675 190.241L328.992 190.607L329.285 191.297L329.925 191.552L330.488 191.806L331.467 192.446L331.852 192.705L332.307 193.09L332.882 193.63L333.568 194.123L334.104 194.285L335.404 194.74L336.41 194.91L336.919 195.369L337.412 195.959L337.594 196.209L337.717 196.579L337.759 196.911L337.698 197.547L337.362 198.546L336.726 199.259L336.356 199.564L335.542 200.138L335.033 200.292L334.474 200.05L334.17 199.811L334.154 199.799L333.811 199.61L333.58 200.053L333.568 200.069L333.121 200.439L331.047 200.643L330.221 200.35L329.747 200.158L329.52 199.826H328.81L328.394 200.35L327.854 199.811L327.361 199.633L326.828 199.541H326.154L326.069 198.966L325.009 199.032L322.152 199.209L321.693 199.868L320.694 200.643L320.297 201.048L319.429 201.468L319.21 201.943L318.874 202.309L317.374 202.818L317.116 202.502L316.195 202.579L315.605 202.818L315.662 203.801ZM328.771 187.399L329.462 187.835L329.751 188.124L329.076 188.949L329.257 189.42L328.401 189.647L327.468 189.983L326.554 190.202L325.201 190.418L324.661 190.202L324.087 189.894L323.987 189.373L323.427 189.184L322.969 188.98L322.714 188.583L322.086 188.263L323.867 188.055L324.388 188.089L325.016 187.634L325.51 186.84L326.327 186.474L327.765 186.054L328.124 185.572L328.833 185.128L329.169 184.92L329.639 184.65L329.716 184.635L330.352 184.446L331.027 184.342L331.521 184.303L331.605 184.777L331.054 185.136L330.645 185.822L330.213 186.092L329.92 186.281L329.789 186.736L329.755 186.74L329.396 186.79L328.694 186.979L328.771 187.399Z" fill="#D0D0D0"/>
<path d="M142.284 33.6601L138.652 26.3959C141.108 25.1621 143.587 23.9746 146.086 22.8179L149.479 30.1977C147.054 31.312 144.659 32.4726 142.284 33.6601Z" fill="#D0D0D0"/>
<path d="M249.241 501.683C243.762 501.645 238.319 501.433 232.935 501.059L233.51 492.95C238.715 493.317 243.989 493.525 249.291 493.56L249.241 501.683ZM265.562 501.263L265.088 493.155C270.378 492.85 275.63 492.376 280.823 491.744L281.814 499.802C276.435 500.461 271.026 500.939 265.562 501.263ZM216.699 499.37C211.282 498.634 205.9 497.724 200.59 496.633L202.225 488.678C207.361 489.723 212.547 490.614 217.787 491.327L216.699 499.37ZM297.943 497.288L296.424 489.311C301.625 488.316 306.765 487.171 311.838 485.856L313.874 493.725C308.623 495.071 303.306 496.258 297.943 497.288ZM184.727 492.862C179.449 491.423 174.252 489.816 169.123 488.046L171.772 480.361C176.726 482.081 181.77 483.635 186.867 485.023L184.727 492.862ZM329.538 489.122L327.001 481.406C332.01 479.752 336.961 477.94 341.827 475.974L344.877 483.508C339.83 485.536 334.724 487.41 329.538 489.122ZM153.842 482.212C148.803 480.088 143.849 477.824 138.982 475.395L142.614 468.131C147.318 470.479 152.111 472.673 156.981 474.721L153.842 482.212ZM359.772 476.907L356.244 469.592C360.986 467.298 365.652 464.865 370.225 462.278L374.219 469.338C369.5 472.021 364.673 474.547 359.772 476.907ZM124.606 467.622C119.898 464.869 115.287 461.974 110.775 458.939L115.31 452.192C119.682 455.145 124.147 457.952 128.704 460.609L124.606 467.622ZM388.16 460.859L383.714 454.062C388.121 451.178 392.424 448.147 396.627 444.986L401.52 451.486C397.17 454.748 392.721 457.875 388.16 460.859ZM97.5408 449.365C93.234 446.026 89.0352 442.56 84.9559 438.959L90.3384 432.867C94.2866 436.356 98.3467 439.71 102.511 442.938L97.5408 449.365ZM414.248 441.253L408.946 435.084C412.948 431.656 416.835 428.089 420.598 424.415L426.274 430.229C422.391 434.031 418.374 437.705 414.248 441.253ZM73.0717 427.758C69.2315 423.906 65.5223 419.919 61.9328 415.828L68.0518 410.484C71.5103 414.448 75.1115 418.307 78.8245 422.032L73.0717 427.758ZM437.582 418.442L431.536 413.021C435.064 409.104 438.457 405.071 441.718 400.926L448.092 405.958C444.722 410.23 441.213 414.402 437.582 418.442ZM51.6033 403.197C48.2912 398.879 45.1257 394.453 42.1029 389.914L48.8619 385.415C51.7845 389.799 54.8498 394.082 58.0423 398.254L51.6033 403.197ZM457.777 392.803L451.083 388.203C454.064 383.857 456.913 379.419 459.612 374.893L466.595 379.05C463.803 383.73 460.853 388.318 457.777 392.803ZM33.4809 376.069C30.7627 371.369 28.1948 366.561 25.785 361.676L33.0645 358.094C35.3972 362.813 37.8802 367.452 40.506 372.005L33.4809 376.069ZM474.487 364.738L467.247 361.055C469.641 356.367 471.885 351.605 473.975 346.739L481.435 349.951C479.28 354.971 476.959 359.907 474.487 364.738ZM19.0502 346.835C16.9719 341.827 15.048 336.726 13.2898 331.559L20.9896 328.937C22.6862 333.938 24.5446 338.869 26.5572 343.716L19.0502 346.835ZM487.398 334.736L479.737 332.022C481.495 327.079 483.088 322.05 484.522 316.969L492.345 319.175C490.872 324.426 489.214 329.615 487.398 334.736ZM8.53803 315.928C7.14609 310.703 5.89686 305.394 4.83272 300.027L12.7909 298.458C13.8319 303.636 15.0194 308.768 16.3843 313.83L8.53803 315.928ZM496.262 303.327L488.312 301.623C489.407 296.499 490.336 291.313 491.099 286.073L499.142 287.249C498.352 292.662 497.392 298.026 496.262 303.327ZM2.17152 283.918C1.45821 278.508 0.918452 273.033 0.567554 267.677L8.67602 267.153C9.01918 272.432 9.53969 277.667 10.2298 282.857L2.17152 283.918ZM500.951 271.039L492.857 270.38C493.278 265.167 493.524 259.904 493.609 254.607L501.733 254.73C501.656 260.213 501.39 265.646 500.951 271.039ZM0 251.367V250.828C0 245.534 0.154227 240.263 0.493528 235.047L8.60199 235.571C8.28197 240.61 8.12003 245.704 8.12003 250.828L0 251.367ZM493.35 238.798C493.084 233.508 492.66 228.256 492.062 223.064L500.144 222.142C500.753 227.513 501.193 232.938 501.455 238.406L493.35 238.798ZM10.0778 219.828L2.01942 218.795C2.72115 213.366 3.57324 207.983 4.60659 202.67L12.5878 204.212C11.5854 209.364 10.7487 214.565 10.0778 219.828ZM489.757 207.425C488.824 202.22 487.714 197.076 486.453 191.982L494.334 190.031C495.645 195.283 496.782 200.611 497.754 205.99L489.757 207.425ZM16.1087 188.817L8.25475 186.742C9.65439 181.464 11.2159 176.247 12.9317 171.099L20.6431 173.671C18.9736 178.653 17.4583 183.7 16.1087 188.817ZM482.147 176.794C480.532 171.77 478.758 166.8 476.834 161.919L484.403 158.939C486.388 163.998 488.212 169.121 489.885 174.323L482.147 176.794ZM26.1372 158.869L18.6186 155.773C20.6969 150.726 22.9178 145.753 25.3082 140.875L32.6031 144.445C30.2936 149.168 28.1384 153.977 26.1372 158.869ZM470.579 147.433C468.335 142.675 465.937 137.987 463.392 133.395L470.494 129.458C473.124 134.2 475.595 139.035 477.924 143.974L470.579 147.433ZM455.306 119.846C452.453 115.401 449.465 111.075 446.345 106.833L452.885 102.006C456.112 106.389 459.204 110.862 462.142 115.45L455.306 119.846ZM436.56 94.4374C433.171 90.4121 429.639 86.4946 425.992 82.6934L431.86 77.0718C435.623 80.9892 439.263 85.0377 442.772 89.1978L436.56 94.4374ZM414.695 71.6502C410.816 68.0914 406.806 64.6637 402.7 61.3631L407.774 55.0359C412.031 58.4482 416.164 61.9839 420.181 65.6586L414.695 71.6502ZM390.053 51.8785C385.754 48.8595 381.331 45.9793 376.82 43.2341L381.042 36.3016C385.708 39.1317 390.269 42.1159 394.722 45.2275L390.053 51.8785ZM363.052 35.4569C358.386 33.0317 353.64 30.7414 348.798 28.6015L352.087 21.1793C357.084 23.3809 361.992 25.7444 366.819 28.2545L363.052 35.4569ZM163.992 24.0633L161.089 16.4791C166.14 14.5243 171.338 12.7314 176.528 11.1274L178.926 18.8812C173.875 20.4621 168.893 22.1818 163.992 24.0633ZM334.141 22.6984C329.194 20.8978 324.197 19.2552 319.123 17.7631L321.406 9.97464C326.642 11.4938 331.812 13.2018 336.917 15.0641L334.141 22.6984ZM194.157 14.7133L192.267 6.80915C197.542 5.54839 202.882 4.45335 208.269 3.53183L209.634 11.5363C204.421 12.4346 199.258 13.491 194.157 14.7133ZM303.829 13.8381C298.704 12.7007 293.538 11.7213 288.305 10.9155L289.543 2.88796C294.949 3.7285 300.289 4.73484 305.59 5.91082L303.829 13.8381ZM225.289 9.37706L224.456 1.30324C229.827 0.740313 235.255 0.347028 240.738 0.12726L241.054 8.24737C235.745 8.45558 230.494 8.8373 225.289 9.37706ZM272.625 9.00691C267.408 8.54809 262.145 8.24348 256.855 8.12396L257.044 0C262.522 0.131091 267.959 0.443406 273.334 0.917657L272.625 9.00691Z" fill="#D0D0D0"/>
<path d="M40.4594 129.731L33.4343 125.675C34.8108 123.292 36.222 120.932 37.6756 118.6L44.5811 122.887C43.17 125.151 41.8012 127.433 40.4594 129.731Z" fill="#D0D0D0"/>
<path d="M115.367 35.766C120.811 30.3835 128.916 38.5807 123.306 44.0943L100.535 66.6347L112.889 117.51L104.472 125.831L83.5274 83.746L66.4928 100.599L68.0003 113.631L61.3454 120.213L53.6571 105.395L38.9243 97.5565L45.5908 90.9632L58.5301 92.5441L75.5647 75.6872L33.6997 54.2799L42.1244 45.9516L92.4258 58.4438L115.367 35.766Z" fill="#D0D0D0"/>
</svg>
